# MagicaVoxel @ Ephtracy

# group
o 

# material
mtllib Camera.mtl
usemtl palette

# normals
vn -1 0 0
vn 1 0 0
vn 0 0 1
vn 0 0 -1
vn 0 -1 0
vn 0 1 0

# texcoords
vt 0.142578 0.5
vt 0.146484 0.5
vt 0.150391 0.5
vt 0.154297 0.5

# verts
v -0.6 0.2 0.3
v -0.6 0.2 -0.2
v -0.6 0.3 0.2
v -0.6 0.3 -0.1
v -0.6 0.6 0.2
v -0.6 0.6 -0.1
v -0.6 0.7 0.3
v -0.6 0.7 -0.2
v -0.5 0.3 0.2
v -0.5 0.3 0
v -0.5 0.3 -0.1
v -0.5 0.6 0.2
v -0.5 0.6 0
v -0.5 0.6 -0.1
v -0.5 0.9 -0.1
v -0.5 0.9 -0.3
v -0.5 1.1 -0.1
v -0.5 1.1 -0.3
v -0.2 0.9 0.1
v -0.2 0.9 -0.1
v -0.2 1 0.1
v -0.2 1 -0.1
v -0.1 0.2 0.2
v -0.1 0.2 -0.1
v -0.1 0.3 0.3
v -0.1 0.3 0.2
v -0.1 0.3 -0.1
v -0.1 0.3 -0.2
v -0.1 0.4 0.1
v -0.1 0.4 0
v -0.1 0.5 0.1
v -0.1 0.5 0
v -0.1 0.6 0.3
v -0.1 0.6 0.2
v -0.1 0.6 -0.1
v -0.1 0.6 -0.2
v -0.1 0.7 0.2
v -0.1 0.7 0.1
v -0.1 0.7 0
v -0.1 0.7 -0.1
v -0.1 0.9 0.1
v -0.1 0.9 0
v 0 0.2 0.3
v 0 0.2 0.2
v 0 0.2 -0.1
v 0 0.2 -0.2
v 0 0.3 0.6
v 0 0.3 0.3
v 0 0.3 0.2
v 0 0.3 -0.1
v 0 0.3 -0.2
v 0 0.4 0.7
v 0 0.4 0.6
v 0 0.6 0.7
v 0 0.6 0.3
v 0 0.6 0.2
v 0 0.6 -0.1
v 0 0.6 -0.2
v 0 0.7 0.3
v 0 0.7 0.2
v 0 0.7 -0.1
v 0 0.7 -0.2
v 0.4 0.8 0.1
v 0.4 0.8 0
v 0.4 0.9 0.1
v 0.4 0.9 0
v 0.5 0.7 0.1
v 0.5 0.7 0
v 0.5 0.8 0.1
v 0.5 0.8 0
v -0.4 0.2 0.3
v -0.4 0.2 0.2
v -0.4 0.2 -0.1
v -0.4 0.2 -0.2
v -0.4 0.3 0.3
v -0.4 0.3 0.2
v -0.4 0.3 -0.1
v -0.4 0.3 -0.2
v -0.4 0.6 0.3
v -0.4 0.6 0.2
v -0.4 0.6 -0.1
v -0.4 0.6 -0.2
v -0.4 0.7 0.3
v -0.4 0.7 0.2
v -0.4 0.7 -0.1
v -0.4 0.7 -0.2
v -0.3 0.2 0.2
v -0.3 0.2 -0.1
v -0.3 0.3 0.3
v -0.3 0.3 0.2
v -0.3 0.3 -0.1
v -0.3 0.3 -0.2
v -0.3 0.4 0.1
v -0.3 0.4 0
v -0.3 0.5 0.1
v -0.3 0.5 0
v -0.3 0.6 0.3
v -0.3 0.6 0.2
v -0.3 0.6 -0.1
v -0.3 0.6 -0.2
v -0.3 0.7 0.2
v -0.3 0.7 -0.1
v -0.1 0.9 -0.2
v -0.1 0.9 -0.3
v -0.1 1 -0.1
v -0.1 1 -0.2
v -0.1 1.1 -0.1
v -0.1 1.1 -0.3
v 0 0.7 0.1
v 0 0.7 0
v 0 0.8 0.1
v 0 0.8 0
v 0 0.9 0
v 0 0.9 -0.2
v 0 1 0
v 0 1 -0.2
v 0.1 0.3 0.6
v 0.1 0.3 0.3
v 0.1 0.4 0.7
v 0.1 0.4 0.6
v 0.1 0.6 0.7
v 0.1 0.6 0.3
v 0.1 0.8 0.1
v 0.1 0.8 0
v 0.1 0.9 0.1
v 0.1 0.9 0
v 0.5 0.9 0.1
v 0.5 0.9 0
v 0.5 1 0.1
v 0.5 1 0
v 0.6 0.7 0.1
v 0.6 0.7 0
v 0.6 0.9 0.1
v 0.6 0.9 0
v 0.7 0.2 0.3
v 0.7 0.2 0.2
v 0.7 0.2 -0.1
v 0.7 0.2 -0.2
v 0.7 0.3 0.3
v 0.7 0.3 0.2
v 0.7 0.3 -0.1
v 0.7 0.3 -0.2
v 0.7 0.6 0.3
v 0.7 0.6 0.2
v 0.7 0.6 -0.1
v 0.7 0.6 -0.2
v 0.7 0.7 0.3
v 0.7 0.7 0.2
v 0.7 0.7 -0.1
v 0.7 0.7 -0.2
v 0.8 0.2 0.2
v 0.8 0.2 -0.1
v 0.8 0.3 0.3
v 0.8 0.3 0.2
v 0.8 0.3 -0.1
v 0.8 0.3 -0.2
v 0.8 0.6 0.3
v 0.8 0.6 0.2
v 0.8 0.6 -0.1
v 0.8 0.6 -0.2
v 0.8 0.7 0.2
v 0.8 0.7 -0.1
v 0 0.4 0.7
v 0 0.6 0.7
v 0.1 0.4 0.7
v 0.1 0.6 0.7
v 0 0.3 0.6
v 0 0.4 0.6
v 0.1 0.3 0.6
v 0.1 0.4 0.6
v -0.6 0.2 0.3
v -0.6 0.7 0.3
v -0.5 0.2 0.3
v -0.5 0.7 0.3
v -0.4 0.2 0.3
v -0.4 0.3 0.3
v -0.4 0.6 0.3
v -0.4 0.7 0.3
v -0.3 0.3 0.3
v -0.3 0.6 0.3
v -0.1 0.3 0.3
v -0.1 0.6 0.3
v 0 0.2 0.3
v 0 0.3 0.3
v 0 0.6 0.3
v 0 0.7 0.3
v 0.1 0.3 0.3
v 0.1 0.6 0.3
v 0.6 0.3 0.3
v 0.6 0.6 0.3
v 0.7 0.2 0.3
v 0.7 0.3 0.3
v 0.7 0.6 0.3
v 0.7 0.7 0.3
v 0.8 0.3 0.3
v 0.8 0.6 0.3
v -0.4 0.2 0.2
v -0.4 0.3 0.2
v -0.4 0.6 0.2
v -0.4 0.7 0.2
v -0.3 0.2 0.2
v -0.3 0.3 0.2
v -0.3 0.6 0.2
v -0.3 0.7 0.2
v -0.1 0.2 0.2
v -0.1 0.3 0.2
v -0.1 0.6 0.2
v -0.1 0.7 0.2
v 0 0.2 0.2
v 0 0.3 0.2
v 0 0.6 0.2
v 0 0.7 0.2
v 0.7 0.2 0.2
v 0.7 0.3 0.2
v 0.7 0.6 0.2
v 0.7 0.7 0.2
v 0.8 0.2 0.2
v 0.8 0.3 0.2
v 0.8 0.6 0.2
v 0.8 0.7 0.2
v -0.2 0.9 0.1
v -0.2 1 0.1
v -0.1 0.7 0.1
v -0.1 0.9 0.1
v 0 0.7 0.1
v 0 0.8 0.1
v 0 0.9 0.1
v 0 1 0.1
v 0.1 0.8 0.1
v 0.1 0.9 0.1
v 0.4 0.8 0.1
v 0.4 0.9 0.1
v 0.5 0.7 0.1
v 0.5 0.8 0.1
v 0.5 0.9 0.1
v 0.5 1 0.1
v 0.6 0.7 0.1
v 0.6 0.9 0.1
v -0.3 0.4 0
v -0.3 0.5 0
v -0.1 0.4 0
v -0.1 0.5 0
v -0.6 0.3 -0.1
v -0.6 0.6 -0.1
v -0.5 0.3 -0.1
v -0.5 0.6 -0.1
v -0.5 0.9 -0.1
v -0.5 1.1 -0.1
v -0.2 0.9 -0.1
v -0.2 1 -0.1
v -0.2 1.1 -0.1
v -0.1 1 -0.1
v -0.1 1.1 -0.1
v -0.6 0.3 0.2
v -0.6 0.6 0.2
v -0.5 0.3 0.2
v -0.5 0.6 0.2
v -0.3 0.4 0.1
v -0.3 0.5 0.1
v -0.1 0.4 0.1
v -0.1 0.5 0.1
v -0.1 0.7 0
v -0.1 0.9 0
v 0 0.7 0
v 0 0.8 0
v 0 0.9 0
v 0 1 0
v 0.1 0.8 0
v 0.1 0.9 0
v 0.4 0.8 0
v 0.4 0.9 0
v 0.5 0.7 0
v 0.5 0.8 0
v 0.5 0.9 0
v 0.5 1 0
v 0.6 0.7 0
v 0.6 0.9 0
v -0.4 0.2 -0.1
v -0.4 0.3 -0.1
v -0.4 0.6 -0.1
v -0.4 0.7 -0.1
v -0.3 0.2 -0.1
v -0.3 0.3 -0.1
v -0.3 0.6 -0.1
v -0.3 0.7 -0.1
v -0.1 0.2 -0.1
v -0.1 0.3 -0.1
v -0.1 0.6 -0.1
v -0.1 0.7 -0.1
v 0 0.2 -0.1
v 0 0.3 -0.1
v 0 0.6 -0.1
v 0 0.7 -0.1
v 0.7 0.2 -0.1
v 0.7 0.3 -0.1
v 0.7 0.6 -0.1
v 0.7 0.7 -0.1
v 0.8 0.2 -0.1
v 0.8 0.3 -0.1
v 0.8 0.6 -0.1
v 0.8 0.7 -0.1
v -0.6 0.2 -0.2
v -0.6 0.7 -0.2
v -0.5 0.2 -0.2
v -0.5 0.7 -0.2
v -0.4 0.2 -0.2
v -0.4 0.3 -0.2
v -0.4 0.6 -0.2
v -0.4 0.7 -0.2
v -0.3 0.3 -0.2
v -0.3 0.6 -0.2
v -0.1 0.3 -0.2
v -0.1 0.6 -0.2
v -0.1 0.9 -0.2
v -0.1 1 -0.2
v 0 0.2 -0.2
v 0 0.3 -0.2
v 0 0.6 -0.2
v 0 0.7 -0.2
v 0 0.9 -0.2
v 0 1 -0.2
v 0.1 0.3 -0.2
v 0.1 0.6 -0.2
v 0.6 0.3 -0.2
v 0.6 0.6 -0.2
v 0.7 0.2 -0.2
v 0.7 0.3 -0.2
v 0.7 0.6 -0.2
v 0.7 0.7 -0.2
v 0.8 0.3 -0.2
v 0.8 0.6 -0.2
v -0.5 0.9 -0.3
v -0.5 1.1 -0.3
v -0.2 0.9 -0.3
v -0.2 1.1 -0.3
v -0.1 0.9 -0.3
v -0.1 1.1 -0.3
v -0.6 0.2 0.3
v -0.5 0.2 0.3
v -0.4 0.2 0.3
v 0 0.2 0.3
v 0.7 0.2 0.3
v -0.4 0.2 0.2
v -0.3 0.2 0.2
v -0.1 0.2 0.2
v 0 0.2 0.2
v 0.7 0.2 0.2
v 0.8 0.2 0.2
v -0.4 0.2 -0.1
v -0.3 0.2 -0.1
v -0.1 0.2 -0.1
v 0 0.2 -0.1
v 0.7 0.2 -0.1
v 0.8 0.2 -0.1
v -0.6 0.2 -0.2
v -0.5 0.2 -0.2
v -0.4 0.2 -0.2
v 0 0.2 -0.2
v 0.7 0.2 -0.2
v 0 0.3 0.6
v 0.1 0.3 0.6
v -0.4 0.3 0.3
v -0.3 0.3 0.3
v -0.1 0.3 0.3
v 0 0.3 0.3
v 0.1 0.3 0.3
v 0.7 0.3 0.3
v 0.8 0.3 0.3
v -0.4 0.3 0.2
v -0.3 0.3 0.2
v -0.1 0.3 0.2
v 0 0.3 0.2
v 0.7 0.3 0.2
v 0.8 0.3 0.2
v -0.4 0.3 -0.1
v -0.3 0.3 -0.1
v -0.1 0.3 -0.1
v 0 0.3 -0.1
v 0.7 0.3 -0.1
v 0.8 0.3 -0.1
v -0.4 0.3 -0.2
v -0.3 0.3 -0.2
v -0.1 0.3 -0.2
v 0 0.3 -0.2
v 0.7 0.3 -0.2
v 0.8 0.3 -0.2
v 0 0.4 0.7
v 0.1 0.4 0.7
v 0 0.4 0.6
v 0.1 0.4 0.6
v -0.3 0.5 0.1
v -0.1 0.5 0.1
v -0.3 0.5 0
v -0.1 0.5 0
v -0.6 0.6 0.2
v -0.5 0.6 0.2
v -0.5 0.6 0
v -0.6 0.6 -0.1
v -0.5 0.6 -0.1
v 0 0.8 0.1
v 0.1 0.8 0.1
v 0.4 0.8 0.1
v 0.5 0.8 0.1
v 0 0.8 0
v 0.1 0.8 0
v 0.4 0.8 0
v 0.5 0.8 0
v -0.2 0.9 0.1
v -0.1 0.9 0.1
v 0.1 0.9 0.1
v 0.4 0.9 0.1
v -0.1 0.9 0
v 0 0.9 0
v 0.1 0.9 0
v 0.4 0.9 0
v -0.5 0.9 -0.1
v -0.2 0.9 -0.1
v -0.2 0.9 -0.2
v -0.1 0.9 -0.2
v 0 0.9 -0.2
v -0.5 0.9 -0.3
v -0.2 0.9 -0.3
v -0.1 0.9 -0.3
v -0.6 0.3 0.2
v -0.5 0.3 0.2
v -0.5 0.3 0
v -0.6 0.3 -0.1
v -0.5 0.3 -0.1
v -0.3 0.4 0.1
v -0.1 0.4 0.1
v -0.3 0.4 0
v -0.1 0.4 0
v 0 0.6 0.7
v 0.1 0.6 0.7
v -0.4 0.6 0.3
v -0.3 0.6 0.3
v -0.1 0.6 0.3
v 0 0.6 0.3
v 0.1 0.6 0.3
v 0.7 0.6 0.3
v 0.8 0.6 0.3
v -0.4 0.6 0.2
v -0.3 0.6 0.2
v -0.1 0.6 0.2
v 0 0.6 0.2
v 0.7 0.6 0.2
v 0.8 0.6 0.2
v -0.4 0.6 -0.1
v -0.3 0.6 -0.1
v -0.1 0.6 -0.1
v 0 0.6 -0.1
v 0.7 0.6 -0.1
v 0.8 0.6 -0.1
v -0.4 0.6 -0.2
v -0.3 0.6 -0.2
v -0.1 0.6 -0.2
v 0 0.6 -0.2
v 0.7 0.6 -0.2
v 0.8 0.6 -0.2
v -0.6 0.7 0.3
v -0.5 0.7 0.3
v -0.4 0.7 0.3
v 0 0.7 0.3
v 0.7 0.7 0.3
v -0.4 0.7 0.2
v -0.3 0.7 0.2
v -0.1 0.7 0.2
v 0 0.7 0.2
v 0.7 0.7 0.2
v 0.8 0.7 0.2
v -0.1 0.7 0.1
v 0 0.7 0.1
v 0.5 0.7 0.1
v 0.6 0.7 0.1
v -0.1 0.7 0
v 0 0.7 0
v 0.5 0.7 0
v 0.6 0.7 0
v -0.4 0.7 -0.1
v -0.3 0.7 -0.1
v -0.1 0.7 -0.1
v 0 0.7 -0.1
v 0.7 0.7 -0.1
v 0.8 0.7 -0.1
v -0.6 0.7 -0.2
v -0.5 0.7 -0.2
v -0.4 0.7 -0.2
v 0 0.7 -0.2
v 0.7 0.7 -0.2
v 0.5 0.9 0.1
v 0.6 0.9 0.1
v 0.5 0.9 0
v 0.6 0.9 0
v -0.2 1 0.1
v 0 1 0.1
v 0.5 1 0.1
v 0 1 0
v 0.5 1 0
v -0.2 1 -0.1
v -0.1 1 -0.1
v -0.1 1 -0.2
v 0 1 -0.2
v -0.5 1.1 -0.1
v -0.2 1.1 -0.1
v -0.1 1.1 -0.1
v -0.5 1.1 -0.3
v -0.2 1.1 -0.3
v -0.1 1.1 -0.3

# faces
f 3/3/1 2/3/1 1/3/1
f 4/3/1 2/3/1 3/3/1
f 5/3/1 3/3/1 1/3/1
f 6/3/1 2/3/1 4/3/1
f 7/3/1 5/3/1 1/3/1
f 7/3/1 6/3/1 5/3/1
f 8/3/1 2/3/1 6/3/1
f 8/3/1 6/3/1 7/3/1
f 12/1/1 10/1/1 9/1/1
f 13/2/1 11/2/1 10/2/1
f 13/1/1 10/1/1 12/1/1
f 14/2/1 11/2/1 13/2/1
f 17/2/1 16/2/1 15/2/1
f 18/2/1 16/2/1 17/2/1
f 21/3/1 20/3/1 19/3/1
f 22/3/1 20/3/1 21/3/1
f 26/3/1 24/3/1 23/3/1
f 27/3/1 24/3/1 26/3/1
f 31/4/1 30/4/1 29/4/1
f 32/4/1 30/4/1 31/4/1
f 33/3/1 26/3/1 25/3/1
f 34/3/1 26/3/1 33/3/1
f 35/3/1 28/3/1 27/3/1
f 36/3/1 28/3/1 35/3/1
f 37/3/1 35/3/1 34/3/1
f 38/3/1 35/3/1 37/3/1
f 39/3/1 35/3/1 38/3/1
f 40/3/1 35/3/1 39/3/1
f 41/4/1 39/4/1 38/4/1
f 42/4/1 39/4/1 41/4/1
f 48/3/1 44/3/1 43/3/1
f 49/3/1 44/3/1 48/3/1
f 50/3/1 46/3/1 45/3/1
f 51/3/1 46/3/1 50/3/1
f 53/3/1 48/3/1 47/3/1
f 54/3/1 53/3/1 52/3/1
f 55/3/1 48/3/1 53/3/1
f 55/3/1 53/3/1 54/3/1
f 59/3/1 56/3/1 55/3/1
f 60/3/1 56/3/1 59/3/1
f 61/3/1 58/3/1 57/3/1
f 62/3/1 58/3/1 61/3/1
f 65/4/1 64/4/1 63/4/1
f 66/4/1 64/4/1 65/4/1
f 69/4/1 68/4/1 67/4/1
f 70/4/1 68/4/1 69/4/1
f 71/4/2 72/4/2 75/4/2
f 75/4/2 72/4/2 76/4/2
f 73/4/2 74/4/2 77/4/2
f 77/4/2 74/4/2 78/4/2
f 79/4/2 80/4/2 83/4/2
f 83/4/2 80/4/2 84/4/2
f 81/4/2 82/4/2 85/4/2
f 85/4/2 82/4/2 86/4/2
f 87/4/2 88/4/2 90/4/2
f 90/4/2 88/4/2 91/4/2
f 93/3/2 94/3/2 95/3/2
f 95/3/2 94/3/2 96/3/2
f 89/4/2 90/4/2 97/4/2
f 97/4/2 90/4/2 98/4/2
f 91/4/2 92/4/2 99/4/2
f 99/4/2 92/4/2 100/4/2
f 98/4/2 99/4/2 101/4/2
f 101/4/2 99/4/2 102/4/2
f 103/4/2 104/4/2 106/4/2
f 105/4/2 106/4/2 107/4/2
f 106/4/2 104/4/2 108/4/2
f 107/4/2 106/4/2 108/4/2
f 109/4/2 110/4/2 111/4/2
f 111/4/2 110/4/2 112/4/2
f 113/3/2 114/3/2 115/3/2
f 115/3/2 114/3/2 116/3/2
f 117/3/2 118/3/2 120/3/2
f 119/3/2 120/3/2 121/3/2
f 120/3/2 118/3/2 122/3/2
f 121/3/2 120/3/2 122/3/2
f 123/4/2 124/4/2 125/4/2
f 125/4/2 124/4/2 126/4/2
f 127/4/2 128/4/2 129/4/2
f 129/4/2 128/4/2 130/4/2
f 131/4/2 132/4/2 133/4/2
f 133/4/2 132/4/2 134/4/2
f 135/3/2 136/3/2 139/3/2
f 139/3/2 136/3/2 140/3/2
f 137/3/2 138/3/2 141/3/2
f 141/3/2 138/3/2 142/3/2
f 143/3/2 144/3/2 147/3/2
f 147/3/2 144/3/2 148/3/2
f 145/3/2 146/3/2 149/3/2
f 149/3/2 146/3/2 150/3/2
f 151/3/2 152/3/2 154/3/2
f 154/3/2 152/3/2 155/3/2
f 153/3/2 154/3/2 157/3/2
f 155/3/2 156/3/2 157/3/2
f 154/3/2 155/3/2 157/3/2
f 157/3/2 156/3/2 158/3/2
f 158/3/2 156/3/2 159/3/2
f 159/3/2 156/3/2 160/3/2
f 158/3/2 159/3/2 161/3/2
f 161/3/2 159/3/2 162/3/2
f 165/3/3 164/3/3 163/3/3
f 166/3/3 164/3/3 165/3/3
f 169/3/3 168/3/3 167/3/3
f 170/3/3 168/3/3 169/3/3
f 173/3/3 172/3/3 171/3/3
f 174/3/3 172/3/3 173/3/3
f 175/4/3 174/4/3 173/4/3
f 176/4/3 174/4/3 175/4/3
f 177/4/3 174/4/3 176/4/3
f 178/4/3 174/4/3 177/4/3
f 179/4/3 177/4/3 176/4/3
f 180/4/3 177/4/3 179/4/3
f 184/3/3 182/3/3 181/3/3
f 185/3/3 182/3/3 184/3/3
f 187/3/3 184/3/3 183/3/3
f 188/3/3 186/3/3 185/3/3
f 189/3/3 187/3/3 183/3/3
f 189/4/3 188/4/3 187/4/3
f 190/3/3 186/3/3 188/3/3
f 190/4/3 188/4/3 189/4/3
f 191/3/3 189/3/3 183/3/3
f 191/3/3 190/3/3 189/3/3
f 192/3/3 190/3/3 191/3/3
f 193/3/3 186/3/3 190/3/3
f 193/3/3 190/3/3 192/3/3
f 194/3/3 186/3/3 193/3/3
f 195/3/3 193/3/3 192/3/3
f 196/3/3 193/3/3 195/3/3
f 201/4/3 198/4/3 197/4/3
f 202/4/3 198/4/3 201/4/3
f 203/4/3 200/4/3 199/4/3
f 204/4/3 200/4/3 203/4/3
f 206/3/3 203/3/3 202/3/3
f 207/3/3 203/3/3 206/3/3
f 209/3/3 206/3/3 205/3/3
f 210/3/3 206/3/3 209/3/3
f 211/3/3 208/3/3 207/3/3
f 212/3/3 208/3/3 211/3/3
f 217/3/3 214/3/3 213/3/3
f 218/3/3 214/3/3 217/3/3
f 219/3/3 216/3/3 215/3/3
f 220/3/3 216/3/3 219/3/3
f 224/3/3 222/3/3 221/3/3
f 225/4/3 224/4/3 223/4/3
f 226/4/3 224/4/3 225/4/3
f 227/3/3 222/3/3 224/3/3
f 227/4/3 224/4/3 226/4/3
f 228/3/3 222/3/3 227/3/3
f 229/4/3 227/4/3 226/4/3
f 229/4/3 228/4/3 227/4/3
f 230/4/3 228/4/3 229/4/3
f 232/4/3 228/4/3 230/4/3
f 234/4/3 232/4/3 231/4/3
f 235/4/3 228/4/3 232/4/3
f 235/4/3 232/4/3 234/4/3
f 236/4/3 228/4/3 235/4/3
f 237/4/3 234/4/3 233/4/3
f 237/4/3 235/4/3 234/4/3
f 238/4/3 235/4/3 237/4/3
f 241/3/3 240/3/3 239/3/3
f 242/3/3 240/3/3 241/3/3
f 245/3/3 244/3/3 243/3/3
f 246/3/3 244/3/3 245/3/3
f 249/2/3 248/2/3 247/2/3
f 250/2/3 248/2/3 249/2/3
f 251/2/3 248/2/3 250/2/3
f 252/4/3 251/4/3 250/4/3
f 253/4/3 251/4/3 252/4/3
f 254/3/4 255/3/4 256/3/4
f 256/3/4 255/3/4 257/3/4
f 258/3/4 259/3/4 260/3/4
f 260/3/4 259/3/4 261/3/4
f 262/4/4 263/4/4 264/4/4
f 264/4/4 263/4/4 265/4/4
f 265/4/4 263/4/4 266/4/4
f 266/4/4 267/4/4 268/4/4
f 265/4/4 266/4/4 268/4/4
f 268/4/4 267/4/4 269/4/4
f 269/4/4 267/4/4 271/4/4
f 270/4/4 271/4/4 273/4/4
f 271/4/4 267/4/4 274/4/4
f 273/4/4 271/4/4 274/4/4
f 274/4/4 267/4/4 275/4/4
f 272/4/4 273/4/4 276/4/4
f 273/4/4 274/4/4 276/4/4
f 276/4/4 274/4/4 277/4/4
f 278/4/4 279/4/4 282/4/4
f 282/4/4 279/4/4 283/4/4
f 280/4/4 281/4/4 284/4/4
f 284/4/4 281/4/4 285/4/4
f 283/3/4 284/3/4 287/3/4
f 287/3/4 284/3/4 288/3/4
f 286/3/4 287/3/4 290/3/4
f 290/3/4 287/3/4 291/3/4
f 288/3/4 289/3/4 292/3/4
f 292/3/4 289/3/4 293/3/4
f 294/3/4 295/3/4 298/3/4
f 298/3/4 295/3/4 299/3/4
f 296/3/4 297/3/4 300/3/4
f 300/3/4 297/3/4 301/3/4
f 302/3/4 303/3/4 304/3/4
f 304/3/4 303/3/4 305/3/4
f 304/4/4 305/4/4 306/4/4
f 306/4/4 305/4/4 307/4/4
f 307/4/4 305/4/4 308/4/4
f 308/4/4 305/4/4 309/4/4
f 307/4/4 308/4/4 310/4/4
f 310/4/4 308/4/4 311/4/4
f 312/3/4 313/3/4 317/3/4
f 317/3/4 313/3/4 318/3/4
f 314/3/4 315/3/4 320/3/4
f 320/3/4 315/3/4 321/3/4
f 318/3/4 319/3/4 322/3/4
f 316/3/4 317/3/4 322/3/4
f 317/3/4 318/3/4 322/3/4
f 322/3/4 319/3/4 323/3/4
f 316/3/4 322/3/4 324/3/4
f 322/4/4 323/4/4 324/4/4
f 323/3/4 319/3/4 325/3/4
f 324/4/4 323/4/4 325/4/4
f 316/3/4 324/3/4 326/3/4
f 324/3/4 325/3/4 326/3/4
f 326/3/4 325/3/4 327/3/4
f 325/3/4 319/3/4 328/3/4
f 327/3/4 325/3/4 328/3/4
f 328/3/4 319/3/4 329/3/4
f 327/3/4 328/3/4 330/3/4
f 330/3/4 328/3/4 331/3/4
f 332/2/4 333/2/4 334/2/4
f 334/2/4 333/2/4 335/2/4
f 334/4/4 335/4/4 336/4/4
f 336/4/4 335/4/4 337/4/4
f 343/4/5 340/4/5 339/4/5
f 346/3/5 342/3/5 341/3/5
f 347/3/5 342/3/5 346/3/5
f 349/4/5 344/4/5 343/4/5
f 349/4/5 343/4/5 339/4/5
f 350/4/5 344/4/5 349/4/5
f 351/3/5 348/3/5 347/3/5
f 351/3/5 347/3/5 346/3/5
f 351/3/5 346/3/5 345/3/5
f 352/3/5 348/3/5 351/3/5
f 353/3/5 348/3/5 352/3/5
f 354/3/5 348/3/5 353/3/5
f 355/3/5 339/3/5 338/3/5
f 356/4/5 349/4/5 339/4/5
f 356/3/5 339/3/5 355/3/5
f 357/4/5 349/4/5 356/4/5
f 358/3/5 353/3/5 352/3/5
f 359/3/5 353/3/5 358/3/5
f 365/3/5 361/3/5 360/3/5
f 366/3/5 361/3/5 365/3/5
f 369/4/5 363/4/5 362/4/5
f 370/4/5 363/4/5 369/4/5
f 371/3/5 365/3/5 364/3/5
f 372/3/5 365/3/5 371/3/5
f 373/3/5 368/3/5 367/3/5
f 374/3/5 368/3/5 373/3/5
f 376/3/5 371/3/5 370/3/5
f 377/3/5 371/3/5 376/3/5
f 381/4/5 376/4/5 375/4/5
f 382/4/5 376/4/5 381/4/5
f 383/3/5 378/3/5 377/3/5
f 384/3/5 378/3/5 383/3/5
f 385/3/5 380/3/5 379/3/5
f 386/3/5 380/3/5 385/3/5
f 389/3/5 388/3/5 387/3/5
f 390/3/5 388/3/5 389/3/5
f 393/3/5 392/3/5 391/3/5
f 394/3/5 392/3/5 393/3/5
f 397/3/5 396/3/5 395/3/5
f 398/3/5 397/3/5 395/3/5
f 399/3/5 397/3/5 398/3/5
f 404/4/5 401/4/5 400/4/5
f 405/4/5 401/4/5 404/4/5
f 406/4/5 403/4/5 402/4/5
f 407/4/5 403/4/5 406/4/5
f 412/3/5 409/3/5 408/3/5
f 414/4/5 411/4/5 410/4/5
f 415/4/5 411/4/5 414/4/5
f 417/3/5 413/3/5 412/3/5
f 417/3/5 412/3/5 408/3/5
f 418/3/5 413/3/5 417/3/5
f 418/2/5 417/2/5 416/2/5
f 419/3/5 413/3/5 418/3/5
f 420/3/5 413/3/5 419/3/5
f 421/2/5 418/2/5 416/2/5
f 422/4/5 419/4/5 418/4/5
f 422/2/5 418/2/5 421/2/5
f 423/4/5 419/4/5 422/4/5
f 424/3/6 425/3/6 426/3/6
f 424/3/6 426/3/6 427/3/6
f 427/3/6 426/3/6 428/3/6
f 429/3/6 430/3/6 431/3/6
f 431/3/6 430/3/6 432/3/6
f 433/3/6 434/3/6 438/3/6
f 438/3/6 434/3/6 439/3/6
f 435/4/6 436/4/6 442/4/6
f 442/4/6 436/4/6 443/4/6
f 437/3/6 438/3/6 444/3/6
f 444/3/6 438/3/6 445/3/6
f 440/3/6 441/3/6 446/3/6
f 446/3/6 441/3/6 447/3/6
f 443/3/6 444/3/6 449/3/6
f 449/3/6 444/3/6 450/3/6
f 448/4/6 449/4/6 454/4/6
f 454/4/6 449/4/6 455/4/6
f 450/3/6 451/3/6 456/3/6
f 456/3/6 451/3/6 457/3/6
f 452/3/6 453/3/6 458/3/6
f 458/3/6 453/3/6 459/3/6
f 461/4/6 462/4/6 465/4/6
f 463/3/6 464/3/6 468/3/6
f 468/3/6 464/3/6 469/3/6
f 467/3/6 468/3/6 471/3/6
f 469/3/6 470/3/6 471/3/6
f 468/3/6 469/3/6 471/3/6
f 471/3/6 470/3/6 472/3/6
f 472/3/6 470/3/6 473/3/6
f 473/3/6 470/3/6 474/3/6
f 472/3/6 473/3/6 476/3/6
f 476/3/6 473/3/6 477/3/6
f 474/3/6 470/3/6 478/3/6
f 465/4/6 466/4/6 479/4/6
f 461/4/6 465/4/6 479/4/6
f 479/4/6 466/4/6 480/4/6
f 477/3/6 478/3/6 481/3/6
f 476/3/6 477/3/6 481/3/6
f 475/3/6 476/3/6 481/3/6
f 481/3/6 478/3/6 482/3/6
f 478/3/6 470/3/6 483/3/6
f 482/3/6 478/3/6 483/3/6
f 483/3/6 470/3/6 484/3/6
f 460/3/6 461/3/6 485/3/6
f 461/4/6 479/4/6 486/4/6
f 485/3/6 461/3/6 486/3/6
f 486/4/6 479/4/6 487/4/6
f 482/3/6 483/3/6 488/3/6
f 488/3/6 483/3/6 489/3/6
f 490/4/6 491/4/6 492/4/6
f 492/4/6 491/4/6 493/4/6
f 494/3/6 495/3/6 497/3/6
f 495/4/6 496/4/6 497/4/6
f 497/4/6 496/4/6 498/4/6
f 494/3/6 497/3/6 499/3/6
f 499/3/6 497/3/6 500/3/6
f 500/3/6 497/3/6 501/3/6
f 501/3/6 497/3/6 502/3/6
f 503/2/6 504/2/6 506/2/6
f 504/4/6 505/4/6 507/4/6
f 506/2/6 504/2/6 507/2/6
f 507/4/6 505/4/6 508/4/6
